<?xml version="1.0" encoding="UTF-8" standalone="no"?>
<!-- Created with Inkscape (http://www.inkscape.org/) -->

<svg
   width="210mm"
   height="297mm"
   viewBox="0 0 210 297"
   version="1.1"
   id="svg5"
   sodipodi:docname="Kassil fyrir verk 4.svg"
   inkscape:version="1.1 (c68e22c387, 2021-05-23)"
   xmlns:inkscape="http://www.inkscape.org/namespaces/inkscape"
   xmlns:sodipodi="http://sodipodi.sourceforge.net/DTD/sodipodi-0.dtd"
   xmlns="http://www.w3.org/2000/svg"
   xmlns:svg="http://www.w3.org/2000/svg">
  <sodipodi:namedview
     id="namedview7"
     pagecolor="#ffffff"
     bordercolor="#666666"
     borderopacity="1.0"
     inkscape:pageshadow="2"
     inkscape:pageopacity="0.0"
     inkscape:pagecheckerboard="0"
     inkscape:document-units="mm"
     showgrid="false"
     inkscape:zoom="0.59897495"
     inkscape:cx="252.93211"
     inkscape:cy="414.87545"
     inkscape:window-width="1920"
     inkscape:window-height="1001"
     inkscape:window-x="-9"
     inkscape:window-y="-9"
     inkscape:window-maximized="1"
     inkscape:current-layer="text17498"
     showguides="true"
     inkscape:guide-bbox="true">
    <sodipodi:guide
       position="530.07225,240.89115"
       orientation="1,0"
       id="guide6112" />
  </sodipodi:namedview>
  <defs
     id="defs2" />
  <g
     inkscape:label="Layer 1"
     inkscape:groupmode="layer"
     id="layer1">
    <g
       id="panel207"
       transform="translate(-15.362069,57.424877)">
      <path
         style="fill:none;stroke:#000000;stroke-width:1"
         d="m 58.1,138.2 h 6.8682 v -3 h 6.1 v 3 h 6.8182 v -3 h 6.1 v 3 h 6.8181 v -3 h 6.1 v 3 h 6.8185 v -3 h 6.1 v 3 h 6.818 v -3 h 6.1 v 3 h 6.818 v -3 h 6.1 v 3 h 6.818 v -3 h 6.1 v 3 h 6.818 v -3 h 6.1 v 3 h 6.819 v -3 h 6.1 v 3 h 6.818 v -3 h 6.1 v 3 h 6.868"
         id="path15" />
      <path
         style="fill:none;stroke:#000000;stroke-width:1"
         d="m 194.2,138.2 v 3.47 h -3 v 5.9 h 3 v 6.52 h -3 v 5.9 h 3 v 6.52 h -3 v 5.9 h 3 v 6.52 h -3 v 5.9 h 3 v 3.47"
         id="path17" />
      <path
         style="fill:none;stroke:#000000;stroke-width:1"
         d="M 194.2,188.3 H 58.1"
         id="path19"
         sodipodi:nodetypes="cc" />
      <path
         style="fill:none;stroke:#000000;stroke-width:1"
         d="m 58.1,188.3 v -3.47 h 3 v -5.9 h -3 v -6.52 h 3 v -5.9 h -3 v -6.52 h 3 v -5.9 h -3 v -6.52 h 3 v -5.9 h -3 v -3.47"
         id="path21" />
    </g>
    <g
       id="panel6384"
       transform="translate(-79.736453,-11.704433)">
      <path
         style="fill:none;stroke:#000000;stroke-width:1"
         d="m 4,61.1 h 3.37 v -3 h 6.1 v 3 h 6.32 v -3 h 6.1 v 3 h 6.32 v -3 h 6.1 v 3 h 6.32 v -3 h 6.1 v 3 h 3.37"
         id="path54" />
      <path
         style="fill:none;stroke:#000000;stroke-width:1"
         d="m 54.1,61.1 v 4.6333 h 3 v 6.1 h -3 v 7.5834 h 3 v 6.1 h -3 V 93.1 h 3 v 6.1 h -3 v 7.583 h 3 v 6.1 h -3 v 7.584 h 3 v 6.1 h -3 v 4.633"
         id="path56" />
      <path
         style="fill:none;stroke:#000000;stroke-width:1"
         d="m 54.1,131.2 h -3.37 v 3 h -6.1 v -3 h -6.32 v 3 h -6.1 v -3 h -6.32 v 3 h -6.1 v -3 h -6.32 v 3 h -6.1 v -3 H 4"
         id="path58" />
      <path
         style="fill:none;stroke:#000000;stroke-width:1"
         d="m 4,131.2 v -4.633 H 1 v -6.1 H 4 V 71.8333 H 1 v -6.1 H 4 V 61.1"
         id="path60"
         sodipodi:nodetypes="cccccccccc" />
    </g>
    <g
       id="panel2153">
      <path
         style="fill:none;stroke:#000000;stroke-width:1"
         d="M 58.1 58.1 L 65.0682 58.1 L 65.0682 61.1 L 70.9682 61.1 L 70.9682 58.1 L 77.9864 58.1 L 77.9864 61.1 L 83.8864 61.1 L 83.8864 58.1 L 90.9045 58.1 L 90.9045 61.1 L 96.8045 61.1 L 96.8045 58.1 L 103.823 58.1 L 103.823 61.1 L 109.723 61.1 L 109.723 58.1 L 116.741 58.1 L 116.741 61.1 L 122.641 61.1 L 122.641 58.1 L 129.659 58.1 L 129.659 61.1 L 135.559 61.1 L 135.559 58.1 L 142.577 58.1 L 142.577 61.1 L 148.477 61.1 L 148.477 58.1 L 155.495 58.1 L 155.495 61.1 L 161.395 61.1 L 161.395 58.1 L 168.414 58.1 L 168.414 61.1 L 174.314 61.1 L 174.314 58.1 L 181.332 58.1 L 181.332 61.1 L 187.232 61.1 L 187.232 58.1 L 194.2 58.1"
         id="path102" />
      <path
         style="fill:none;stroke:#000000;stroke-width:1"
         d="M 194.2 58.1 L 194.2 65.8333 L 191.2 65.8333 L 191.2 71.7333 L 194.2 71.7333 L 194.2 79.5167 L 191.2 79.5167 L 191.2 85.4167 L 194.2 85.4167 L 194.2 93.2 L 191.2 93.2 L 191.2 99.1 L 194.2 99.1 L 194.2 106.883 L 191.2 106.883 L 191.2 112.783 L 194.2 112.783 L 194.2 120.567 L 191.2 120.567 L 191.2 126.467 L 194.2 126.467 L 194.2 134.2"
         id="path104" />
      <path
         style="fill:none;stroke:#000000;stroke-width:1"
         d="M 194.2 134.2 L 187.232 134.2 L 187.232 131.2 L 181.332 131.2 L 181.332 134.2 L 174.314 134.2 L 174.314 131.2 L 168.414 131.2 L 168.414 134.2 L 161.395 134.2 L 161.395 131.2 L 155.495 131.2 L 155.495 134.2 L 148.477 134.2 L 148.477 131.2 L 142.577 131.2 L 142.577 134.2 L 135.559 134.2 L 135.559 131.2 L 129.659 131.2 L 129.659 134.2 L 122.641 134.2 L 122.641 131.2 L 116.741 131.2 L 116.741 134.2 L 109.723 134.2 L 109.723 131.2 L 103.823 131.2 L 103.823 134.2 L 96.8045 134.2 L 96.8045 131.2 L 90.9045 131.2 L 90.9045 134.2 L 83.8864 134.2 L 83.8864 131.2 L 77.9864 131.2 L 77.9864 134.2 L 70.9682 134.2 L 70.9682 131.2 L 65.0682 131.2 L 65.0682 134.2 L 58.1 134.2"
         id="path106" />
      <path
         style="fill:none;stroke:#000000;stroke-width:1"
         d="M 58.1 134.2 L 58.1 126.467 L 61.1 126.467 L 61.1 120.567 L 58.1 120.567 L 58.1 112.783 L 61.1 112.783 L 61.1 106.883 L 58.1 106.883 L 58.1 99.1 L 61.1 99.1 L 61.1 93.2 L 58.1 93.2 L 58.1 85.4167 L 61.1 85.4167 L 61.1 79.5167 L 58.1 79.5167 L 58.1 71.7333 L 61.1 71.7333 L 61.1 65.8333 L 58.1 65.8333 L 58.1 58.1"
         id="path108" />
    </g>
    <g
       id="panel1487"
       transform="translate(-0.36576355,-83.759852)">
      <path
         style="fill:none;stroke:#000000;stroke-width:1"
         d="m 198.2,61.1 h 3.37 v -3 h 6.1 v 3 h 6.32 v -3 h 6.1 v 3 h 6.32 v -3 h 6.1 v 3 h 6.32 v -3 h 6.1 v 3 h 3.37"
         id="path111" />
      <path
         style="fill:none;stroke:#000000;stroke-width:1"
         d="m 248.3,61.1 v 4.6333 h 3 v 6.1 h -3 v 48.6337 h 3 v 6.1 h -3 v 4.633"
         id="path113"
         sodipodi:nodetypes="cccccccccc" />
      <path
         style="fill:none;stroke:#000000;stroke-width:1"
         d="m 248.3,131.2 h -3.37 v 3 h -6.1 v -3 h -6.32 v 3 h -6.1 v -3 h -6.32 v 3 h -6.1 v -3 h -6.32 v 3 h -6.1 v -3 h -3.37"
         id="path115" />
      <path
         style="fill:none;stroke:#000000;stroke-width:1"
         d="m 198.2,131.2 v -4.633 h -3 v -6.1 h 3 v -7.584 h -3 v -6.1 h 3 V 99.2 h -3 v -6.1 h 3 v -7.5833 h -3 v -6.1 h 3 v -7.5834 h -3 v -6.1 h 3 V 61.1"
         id="path117" />
    </g>
    <g
       id="panel4064">
      <path
         style="fill:none;stroke:#000000;stroke-width:1"
         d="M 252.3,58.1 H 388.4"
         id="path120"
         sodipodi:nodetypes="cc" />
      <path
         style="fill:none;stroke:#000000;stroke-width:1"
         d="m 388.4,58.1 v 7.7333 h -3 v 5.9 h 3 v 7.7834 h -3 v 33.2663 h 3 v 7.784 h -3 v 5.9 h 3 v 7.733"
         id="path122"
         sodipodi:nodetypes="cccccccccccccc" />
      <path
         style="fill:none;stroke:#000000;stroke-width:1"
         d="M 388.4,134.2 H 252.3"
         id="path124"
         sodipodi:nodetypes="cc" />
      <path
         style="fill:#000000;stroke:#000000;stroke-width:1;fill-opacity:0"
         d="m 252.3,134.2 v -7.733 h 3 v -5.9 h -3 v -7.784 h 3 V 79.5167 h -3 v -7.7834 h 3 v -5.9 h -3 V 58.1"
         id="path126"
         sodipodi:nodetypes="cccccccccccccc" />
    </g>
    <g
       id="panel3569"
       transform="translate(-32.187192,-21.214286)">
      <path
         style="fill:none;stroke:#000000;stroke-width:1"
         d="M 58.1,4 H 194.2"
         id="path129"
         sodipodi:nodetypes="cc" />
      <path
         style="fill:none;stroke:#000000;stroke-width:1"
         d="m 194.2,4 v 3.47 h -3 v 5.9 h 3 v 6.52 h -3 v 5.9 h 3 v 6.52 h -3 v 5.9 h 3 v 6.52 h -3 v 5.9 h 3 v 3.47"
         id="path131" />
      <path
         style="fill:none;stroke:#000000;stroke-width:1"
         d="m 194.2,54.1 h -6.868 v 3 h -6.1 v -3 h -6.818 v 3 h -6.1 v -3 h -6.819 v 3 h -6.1 v -3 h -6.818 v 3 h -6.1 v -3 h -6.818 v 3 h -6.1 v -3 h -6.818 v 3 h -6.1 v -3 h -6.818 v 3 h -6.1 v -3 h -6.8185 v 3 h -6.1 v -3 h -6.8181 v 3 h -6.1 v -3 h -6.8182 v 3 h -6.1 v -3 H 58.1"
         id="path133" />
      <path
         style="fill:none;stroke:#000000;stroke-width:1"
         d="m 58.1,54.1 v -3.47 h 3 v -5.9 h -3 v -6.52 h 3 v -5.9 h -3 v -6.52 h 3 v -5.9 h -3 v -6.52 h 3 v -5.9 h -3 V 4"
         id="path135" />
    </g>
    <circle
       style="fill:none;fill-opacity:0;fill-rule:evenodd;stroke:#000000;stroke-width:0.114539"
       id="path5832"
       cx="280.83463"
       cy="78.453552"
       r="2.4427307" />
    <ellipse
       style="fill:none;fill-opacity:0;fill-rule:evenodd;stroke:#000000;stroke-width:0.111563"
       id="path5834"
       cx="280.41043"
       cy="113.93852"
       rx="2.4442189"
       ry="2.4442184" />
    <circle
       style="fill:none;fill-opacity:0;fill-rule:evenodd;stroke:#000000;stroke-width:0.112995"
       id="path5836"
       cx="353.43704"
       cy="78.280869"
       r="2.4435027" />
    <circle
       style="fill:none;fill-opacity:0;fill-rule:evenodd;stroke:#000000;stroke-width:0.102198"
       id="path5838"
       cx="355.02548"
       cy="112.82032"
       r="2.4489012" />
    <circle
       style="fill:none;fill-opacity:0;fill-rule:evenodd;stroke:#000000;stroke-width:0.252649"
       id="path5840"
       cx="339.11819"
       cy="88.682961"
       r="3.6236756" />
    <ellipse
       style="fill:none;fill-opacity:0;fill-rule:evenodd;stroke:#000000;stroke-width:0.2917"
       id="path5842"
       cx="296.12753"
       cy="89.123726"
       rx="3.6041498"
       ry="3.6041496" />
    <circle
       style="fill:none;fill-opacity:0;fill-rule:evenodd;stroke:#000000;stroke-width:0.253944"
       id="path5844"
       cx="296.36136"
       cy="108.18923"
       r="3.6230283" />
    <ellipse
       style="fill:none;fill-opacity:0;fill-rule:evenodd;stroke:#000000;stroke-width:0.251427"
       id="path5846"
       cx="338.36224"
       cy="108.32043"
       rx="3.6242867"
       ry="3.6242869" />
    <g
       aria-label="Emil"
       id="text17498"
       style="font-size:10.5833px;line-height:1.25;font-family:'Bell MT';-inkscape-font-specification:'Bell MT, Normal';fill:#0000ff;stroke-width:0.264583">
      <path
         d="m 311.22165,96.216282 q 0.14986,0.578774 0.29456,1.622634 -0.0258,0.04134 -0.0568,0.04134 -0.0362,0 -0.0775,-0.04134 -0.35657,-0.573606 -0.68213,-0.873329 -0.32556,-0.299722 -0.65629,-0.423745 -0.32556,-0.129191 -1.12654,-0.129191 -0.75447,0 -1.19372,0.08785 -0.0413,0.05168 -0.0413,0.191202 0,0.03617 -0.0103,0.129191 -0.0517,0.41341 -0.0517,2.24275 0,0.07751 0.0103,0.21704 0.39274,0.0155 0.53743,0.0155 0.65112,0 0.94051,-0.191202 0.29456,-0.19637 0.5116,-0.837156 0.0362,-0.10852 0.10335,-0.10852 0.0982,0 0.0982,0.149861 l -0.0207,0.206706 q -0.0413,0.408242 -0.0413,0.842323 0,0.702801 0.0258,1.266071 0,0.1757 -0.0982,0.1757 -0.0723,0 -0.0982,-0.12403 -0.10852,-0.60978 -0.45475,-0.878493 -0.34623,-0.268717 -1.50378,-0.268717 -0.0155,0.377237 -0.0155,1.21956 0,1.09037 0.0775,1.38492 0.0775,0.29456 0.37207,0.47026 0.29456,0.17053 0.99735,0.17053 2.01021,0 2.59415,-1.38492 0.0723,-0.17054 0.14986,-0.17054 0.0827,0 0.0827,0.11369 0,0.062 -0.0258,0.13436 -0.031,0.0982 -0.14986,0.7338 -0.0258,0.13436 -0.19637,0.80615 l -2.16524,-0.005 q -0.46509,0 -1.36942,-0.0413 -0.89917,-0.0362 -1.5968,-0.0413 -0.69246,0 -0.72347,-0.0258 -0.031,-0.0258 -0.031,-0.0568 0,-0.10335 0.17053,-0.10335 0.57361,0 0.75447,-0.30489 0.18087,-0.30489 0.18087,-1.48311 l -0.005,-1.059363 0.0155,-0.992185 q 0,-0.299722 -0.0362,-1.13171 -0.031,-0.837156 -0.062,-0.956011 -0.0258,-0.118855 -0.1602,-0.232543 -0.12919,-0.118856 -0.57877,-0.237711 -0.13436,-0.03617 -0.13436,-0.113688 0,-0.09302 0.18087,-0.09302 l 1.05419,0.05684 q 0.55811,0.02584 2.74401,0.02584 1.4366,0 1.46761,0.0052 z"
         id="path22606" />
      <path
         d="m 314.03284,98.479702 q 0.062,0.19637 0.062,0.361734 -0.005,0.242878 -0.0155,0.490925 0.3824,-0.428913 0.77514,-0.640786 0.39274,-0.211873 0.79582,-0.211873 0.3669,0 0.68212,0.175699 0.31523,0.1757 0.57361,0.527098 0.3669,-0.356566 0.73897,-0.532265 0.37724,-0.175699 0.75447,-0.175699 0.50126,0 0.83199,0.206705 0.3359,0.206705 0.41858,0.459918 0.0827,0.248046 0.0827,0.909502 l -0.0258,1.94303 q 0,0.42374 0.0827,0.57877 0.0879,0.14986 0.35139,0.14986 0.1757,0 0.1757,0.093 0,0.0982 -0.28422,0.0982 h -1.58646 q -0.23254,0 -0.23254,-0.093 0,-0.0827 0.13436,-0.093 0.42374,-0.0207 0.5271,-0.1912 0.10335,-0.1757 0.10335,-1.86551 0,-0.790651 -0.062,-1.136882 -0.0568,-0.351399 -0.27905,-0.573607 -0.22221,-0.222208 -0.54777,-0.222208 -0.28422,0 -0.55294,0.1757 -0.26872,0.170531 -0.52193,0.52193 -0.2067,0.676957 -0.2067,2.382277 0,0.59944 0.093,0.75964 0.0982,0.15503 0.42375,0.15503 h 0.0879 q 0.16536,0 0.16536,0.0879 0,0.093 -0.2067,0.093 h -1.74149 q -0.26355,0 -0.26355,-0.0982 0,-0.0982 0.14986,-0.0982 0.31522,0 0.42374,-0.12919 0.11369,-0.13436 0.14987,-0.75965 0.0413,-0.62528 0.0413,-1.23506 0,-1.100703 -0.21704,-1.446934 -0.21188,-0.346231 -0.62012,-0.346231 -0.3514,0 -0.69763,0.279052 -0.34106,0.279052 -0.45992,0.754473 -0.11885,0.47542 -0.11885,1.67431 0,0.84749 0.0827,1.03869 0.0827,0.18604 0.40824,0.18604 0.12919,0 0.15503,0.0155 0.031,0.0155 0.031,0.0827 0,0.0827 -0.20154,0.0827 h -1.60197 q -0.28422,0 -0.28422,-0.0982 0,-0.0879 0.10336,-0.093 0.27905,-0.0103 0.37723,-0.10335 0.10336,-0.0982 0.14987,-0.56327 0.0465,-0.47025 0.0465,-1.52445 0,-1.054196 -0.0155,-1.276404 -0.0103,-0.222208 -0.14986,-0.356566 -0.13953,-0.134358 -0.47542,-0.139526 -0.13436,-0.0052 -0.13436,-0.09302 0,-0.05684 0.0362,-0.07751 0.0362,-0.02584 0.46509,-0.06718 0.43408,-0.04651 0.76481,-0.04651 0.0827,0 0.25838,0.0052 z"
         id="path22608" />
      <path
         d="m 321.76878,95.952733 q 0.19637,0 0.3514,0.144693 0.15502,0.144694 0.15502,0.315225 0,0.201538 -0.12919,0.346231 -0.12402,0.144694 -0.34623,0.144694 -0.19637,0 -0.3514,-0.124023 -0.15502,-0.129191 -0.15502,-0.346231 0,-0.211873 0.12919,-0.346231 0.13435,-0.134358 0.34623,-0.134358 z m 0.5736,2.526969 -0.005,1.162716 0.0103,1.085202 v 0.81648 l -0.005,0.62012 q 0,0.37207 0.11886,0.47542 0.12402,0.0982 0.3669,0.10852 0.28422,0.0155 0.28422,0.11886 0,0.0827 -0.10852,0.0827 -0.0413,0 -0.093,-0.005 -0.48059,-0.062 -0.894,-0.062 -0.66145,0 -0.91467,0.0413 -0.0517,0.0103 -0.10335,0.0103 -0.12402,0 -0.12402,-0.093 0,-0.093 0.28938,-0.12919 0.28939,-0.0362 0.36691,-0.12402 0.0827,-0.093 0.0827,-0.51677 l 0.031,-2.139395 q 0,-0.857826 -0.12919,-1.012855 -0.12919,-0.160196 -0.50126,-0.170531 -0.12402,0 -0.12402,-0.08268 0,-0.04651 0.0413,-0.07235 0.0413,-0.02584 0.61495,-0.06718 0.57361,-0.04134 0.79581,-0.04651 z"
         id="path22610" />
      <path
         d="m 325.13807,95.839045 q 0.0155,0.651121 0.0258,1.302242 l -0.0103,3.219433 0.0207,1.56062 q 0,0.44442 0.12403,0.64079 0.12919,0.19637 0.54776,0.23254 0.16537,0.0155 0.16537,0.0982 0,0.0879 -0.13436,0.0879 -0.0362,0 -0.0879,-0.005 -0.53226,-0.0568 -1.27124,-0.0568 -0.44958,0 -0.72346,0.0413 -0.0568,0.005 -0.10336,0.005 -0.15502,0 -0.15502,-0.093 0,-0.0878 0.13952,-0.093 0.47026,-0.005 0.61495,-0.26872 0.14986,-0.26872 0.14986,-0.894 l -0.0155,-2.945546 q -0.005,-1.421097 -0.0413,-1.694981 -0.031,-0.279052 -0.21188,-0.465087 -0.18086,-0.186034 -0.50642,-0.23771 -0.20154,-0.03101 -0.20154,-0.108521 0,-0.08785 0.16536,-0.09819 0.94568,-0.06201 1.4211,-0.227375 z"
         id="path22612" />
    </g>
  </g>
</svg>
